<svg width="60" height="60" xmlns="http://www.w3.org/2000/svg">
 <g>
  <title>Layer 1</title>
  <path fill="#ffffff" stroke="#000" d="m572.13,162.685l0,-1.49l1.49,1.49l-1.49,0z" id="svg_6"/>
  <path fill="#ffffff" stroke="#000" d="m587.055,183.58l0,-1.49l1.49,1.49l-1.49,0z" id="svg_7"/>
  <path fill="#ffffff" stroke="#000" d="m634.815,225.37l0,-1.49l1.49,1.49l-1.49,0z" id="svg_9"/>
  <path fill="#ffffff" stroke="#000" d="m606.955,187.56l0,-1.49l1.49,1.49l-1.49,0z" id="svg_11"/>
  <path fill="#DDDDDD" stroke="#000" d="m353.23,628.345l0,-1.49l1.49,1.49l-1.49,0z" id="svg_13"/>
  <path fill="#DDDDDD" stroke="#000" d="m723.37,278.105l0,-1.49l1.49,1.49l-1.49,0z" id="svg_14"/>
  <path transform="rotate(90 30.0243 28.9357)" stroke="#ffffff" id="svg_10" d="m35.4998,28.93573l-32.07481,-32.10812l21.1238,0l32.07481,32.10812l-32.07481,32.10809l-21.1238,0l32.07481,-32.10809z" fill="#ffffff"/>
 </g>

</svg>